<mxfile host="app.diagrams.net" modified="2023-05-02T09:41:37.357Z" agent="Mozilla/5.0 (Macintosh; Intel Mac OS X 10_15_7) AppleWebKit/537.36 (KHTML, like Gecko) Chrome/112.0.0.0 Safari/537.36" etag="33OZ0S6auAkWkeEr4Kho" version="21.2.4" type="github">
  <diagram name="Page-1" id="ZorAxVkc9tV3lhKMBp7c">
    <mxGraphModel dx="671" dy="596" grid="1" gridSize="10" guides="1" tooltips="1" connect="1" arrows="1" fold="1" page="1" pageScale="1" pageWidth="850" pageHeight="1100" math="0" shadow="0">
      <root>
        <mxCell id="0" />
        <mxCell id="1" parent="0" />
        <mxCell id="PJyqiNK83fNmgwTpZ4mM-4" style="edgeStyle=orthogonalEdgeStyle;rounded=0;orthogonalLoop=1;jettySize=auto;html=1;entryX=0;entryY=0.5;entryDx=0;entryDy=0;entryPerimeter=0;" edge="1" parent="1" source="PJyqiNK83fNmgwTpZ4mM-2" target="PJyqiNK83fNmgwTpZ4mM-3">
          <mxGeometry relative="1" as="geometry" />
        </mxCell>
        <mxCell id="PJyqiNK83fNmgwTpZ4mM-2" value="" style="outlineConnect=0;dashed=0;verticalLabelPosition=bottom;verticalAlign=top;align=center;html=1;shape=mxgraph.aws3.athena;fillColor=#F58534;gradientColor=none;" vertex="1" parent="1">
          <mxGeometry x="150" y="340" width="76.5" height="76.5" as="geometry" />
        </mxCell>
        <mxCell id="PJyqiNK83fNmgwTpZ4mM-3" value="" style="outlineConnect=0;dashed=0;verticalLabelPosition=bottom;verticalAlign=top;align=center;html=1;shape=mxgraph.aws3.elasticsearch_service;fillColor=#F58534;gradientColor=none;" vertex="1" parent="1">
          <mxGeometry x="350" y="335.5" width="67.5" height="81" as="geometry" />
        </mxCell>
      </root>
    </mxGraphModel>
  </diagram>
</mxfile>
